<?xml version="1.0" encoding="utf-8"?>
<!-- Generator: Adobe Illustrator 20.0.0, SVG Export Plug-In . SVG Version: 6.00 Build 0)  -->
<svg version="1.1" id="Layer_1" xmlns="http://www.w3.org/2000/svg" xmlns:xlink="http://www.w3.org/1999/xlink" x="0px" y="0px"
	 viewBox="0 0 448 448" style="enable-background:new 0 0 448 448;" xml:space="preserve">
<style type="text/css">
	.st0{display:none;}
	.st1{display:inline;}
	.st2{fill:none;}
</style>
<g id="icomoon-ignore">
</g>
<g id="Grid" class="st0">
	<g id="icomoon-ignore_1_" class="st1">
		<line class="st2" x1="16" y1="1" x2="16" y2="449"/>
		<line class="st2" x1="32" y1="1" x2="32" y2="449"/>
		<line class="st2" x1="48" y1="1" x2="48" y2="449"/>
		<line class="st2" x1="64" y1="1" x2="64" y2="449"/>
		<line class="st2" x1="80" y1="1" x2="80" y2="449"/>
		<line class="st2" x1="96" y1="1" x2="96" y2="449"/>
		<line class="st2" x1="112" y1="1" x2="112" y2="449"/>
		<line class="st2" x1="128" y1="1" x2="128" y2="449"/>
		<line class="st2" x1="144" y1="1" x2="144" y2="449"/>
		<line class="st2" x1="160" y1="1" x2="160" y2="449"/>
		<line class="st2" x1="176" y1="1" x2="176" y2="449"/>
		<line class="st2" x1="192" y1="1" x2="192" y2="449"/>
		<line class="st2" x1="208" y1="1" x2="208" y2="449"/>
		<line class="st2" x1="224" y1="1" x2="224" y2="449"/>
		<line class="st2" x1="240" y1="1" x2="240" y2="449"/>
		<line class="st2" x1="256" y1="1" x2="256" y2="449"/>
		<line class="st2" x1="272" y1="1" x2="272" y2="449"/>
		<line class="st2" x1="288" y1="1" x2="288" y2="449"/>
		<line class="st2" x1="304" y1="1" x2="304" y2="449"/>
		<line class="st2" x1="320" y1="1" x2="320" y2="449"/>
		<line class="st2" x1="336" y1="1" x2="336" y2="449"/>
		<line class="st2" x1="352" y1="1" x2="352" y2="449"/>
		<line class="st2" x1="368" y1="1" x2="368" y2="449"/>
		<line class="st2" x1="384" y1="1" x2="384" y2="449"/>
		<line class="st2" x1="400" y1="1" x2="400" y2="449"/>
		<line class="st2" x1="416" y1="1" x2="416" y2="449"/>
		<line class="st2" x1="432" y1="1" x2="432" y2="449"/>
		<line class="st2" x1="0" y1="17" x2="448" y2="17"/>
		<line class="st2" x1="0" y1="33" x2="448" y2="33"/>
		<line class="st2" x1="0" y1="49" x2="448" y2="49"/>
		<line class="st2" x1="0" y1="65" x2="448" y2="65"/>
		<line class="st2" x1="0" y1="81" x2="448" y2="81"/>
		<line class="st2" x1="0" y1="97" x2="448" y2="97"/>
		<line class="st2" x1="0" y1="113" x2="448" y2="113"/>
		<line class="st2" x1="0" y1="129" x2="448" y2="129"/>
		<line class="st2" x1="0" y1="145" x2="448" y2="145"/>
		<line class="st2" x1="0" y1="161" x2="448" y2="161"/>
		<line class="st2" x1="0" y1="177" x2="448" y2="177"/>
		<line class="st2" x1="0" y1="193" x2="448" y2="193"/>
		<line class="st2" x1="0" y1="209" x2="448" y2="209"/>
		<line class="st2" x1="0" y1="225" x2="448" y2="225"/>
		<line class="st2" x1="0" y1="241" x2="448" y2="241"/>
		<line class="st2" x1="0" y1="257" x2="448" y2="257"/>
		<line class="st2" x1="0" y1="273" x2="448" y2="273"/>
		<line class="st2" x1="0" y1="289" x2="448" y2="289"/>
		<line class="st2" x1="0" y1="305" x2="448" y2="305"/>
		<line class="st2" x1="0" y1="321" x2="448" y2="321"/>
		<line class="st2" x1="0" y1="337" x2="448" y2="337"/>
		<line class="st2" x1="0" y1="353" x2="448" y2="353"/>
		<line class="st2" x1="0" y1="369" x2="448" y2="369"/>
		<line class="st2" x1="0" y1="385" x2="448" y2="385"/>
		<line class="st2" x1="0" y1="401" x2="448" y2="401"/>
		<line class="st2" x1="0" y1="417" x2="448" y2="417"/>
		<line class="st2" x1="0" y1="433" x2="448" y2="433"/>
	</g>
</g>
<path d="M448,177.5V376c0,11-3.9,20.4-11.8,28.2S419,416,408,416H40c-11,0-20.4-3.9-28.2-11.8S0,387,0,376V177.5
	c7.3,8.2,15.8,15.4,25.2,21.8c60.3,41,101.8,69.8,124.2,86.2c9.5,7,17.2,12.5,23.1,16.4s13.8,7.9,23.6,12s19,6.1,27.5,6.1h0.5
	c8.5,0,17.7-2,27.5-6.1c9.8-4.1,17.7-8.1,23.6-12s13.6-9.4,23.1-16.4c28.3-20.5,69.8-49.2,124.5-86.2
	C432.5,192.8,440.8,185.5,448,177.5z M448,104c0,13.2-4.1,25.8-12.2,37.8s-18.3,22.2-30.5,30.8c-62.7,43.5-101.7,70.6-117,81.2
	c-1.7,1.2-5.2,3.7-10.6,7.6s-9.9,7.1-13.5,9.5s-7.9,5.1-13,8.1c-5.1,3-9.9,5.2-14.4,6.8s-8.7,2.2-12.5,2.2h-0.5
	c-3.8,0-8-0.8-12.5-2.2s-9.3-3.8-14.4-6.8s-9.4-5.7-13-8.1s-8.1-5.6-13.5-9.5s-9-6.5-10.6-7.6c-15.2-10.7-37-25.9-65.5-45.6
	S48.7,176.5,43,172.5c-10.3-7-20.1-16.6-29.2-28.9S0,120,0,109.5c0-13,3.5-23.8,10.4-32.5S27.2,64,40,64h368
	c10.8,0,20.2,3.9,28.1,11.8S448,93,448,104z"/>
</svg>
